<svg xmlns="http://www.w3.org/2000/svg" width="805" height="600"><rect width="805" height="600" x="0" y="0" fill="#f1eeee" id="background"/><g transform="translate(10,10)" id="viz"><g id="arcs"><path d="M155.7407175029696,482A299.6296412485152,299.6296412485152 0,0,1 755,482" fill="none" stroke="gray" stroke-width="7.468879668049793" opacity="0.5"/><path d="M155.7407175029696,482A220.53442178065995,220.53442178065995 0,0,1 596.8095610642895,482" fill="none" stroke="gray" stroke-width="7.842323651452283" opacity="0.5"/><path d="M301.2804248791626,482A226.8597875604187,226.8597875604187 0,0,1 755,482" fill="none" stroke="gray" stroke-width="8.215767634854773" opacity="0.5"/><path d="M301.2804248791626,482A147.76456809256345,147.76456809256345 0,0,1 596.8095610642895,482" fill="none" stroke="gray" stroke-width="2.7385892116182573" opacity="0.5"/><path d="M446.82013225535553,482A154.08993387232223,154.08993387232223 0,0,1 755,482" fill="none" stroke="gray" stroke-width="18.672199170124482" opacity="0.5"/><path d="M16,482A369.5,369.5 0,0,1 755,482" fill="none" stroke="gray" stroke-width="30" opacity="0.5"/><path d="M446.82013225535553,482A74.99471440446698,74.99471440446698 0,0,1 596.8095610642895,482" fill="none" stroke="gray" stroke-width="2.8630705394190867" opacity="0.5"/></g><g id="nodes"><g><circle cx="16" cy="482" r="16"/><text transform="translate(16,503) rotate(-90)" alignment-baseline="middle" font-family="Helvetica, Arial, sans-serif" font-size="16" text-anchor="end">S10-Rev23</text></g><g><circle cx="155.7407175029696" cy="482" r="21.79898987322333"/><text transform="translate(155.7407175029696,508.7989898732233) rotate(-90)" alignment-baseline="middle" font-family="Helvetica, Arial, sans-serif" font-size="16" text-anchor="end">A22</text></g><g><circle cx="301.2804248791626" cy="482" r="21.79898987322333"/><text transform="translate(301.2804248791626,508.7989898732233) rotate(-90)" alignment-baseline="middle" font-family="Helvetica, Arial, sans-serif" font-size="16" text-anchor="end">IN23</text></g><g><circle cx="446.82013225535553" cy="482" r="21.79898987322333"/><text transform="translate(446.82013225535553,508.7989898732233) rotate(-90)" alignment-baseline="middle" font-family="Helvetica, Arial, sans-serif" font-size="16" text-anchor="end">L20</text></g><g><circle cx="596.8095610642895" cy="482" r="26.248711305964278"/><text transform="translate(596.8095610642895,513.2487113059642) rotate(-90)" alignment-baseline="middle" font-family="Helvetica, Arial, sans-serif" font-size="16" text-anchor="end">F</text></g><g><circle cx="755" cy="482" r="30"/><text transform="translate(755,517) rotate(-90)" alignment-baseline="middle" font-family="Helvetica, Arial, sans-serif" font-size="16" text-anchor="end">M</text></g></g></g></svg>