<svg xmlns="http://www.w3.org/2000/svg" width="805" height="600"><rect width="805" height="600" x="0" y="0" fill="#FFFFFF" id="background"/><g transform="translate(402.5,300)" id="viz"><path fill="#84cb80" display="" d="M6.980486755139913e-15,-114A114,114,0,1,1,-6.980486755139913e-15,114A114,114,0,1,1,6.980486755139913e-15,-114M-1.0654427152581972e-14,-58A58,58,0,1,0,1.0654427152581972e-14,58A58,58,0,1,0,-1.0654427152581972e-14,-58Z"><title>.</title></path><path fill="#84cb80" display="" d="M0.9999920729479002,-171.99709304477807A172,172,0,0,1,40.992669827486914,-167.0437099097558L27.329905310132716,-112.73453896539064A116,116,0,0,0,0.99999207294792,-115.99568964342616Z"><title>.npm</title></path><path fill="#84cb80" display="" d="M42.93221909354784,-166.55577013031882A172,172,0,0,1,143.40283055568494,-94.97172310018132L96.53337944133663,-64.32189870980898A116,116,0,0,0,29.269454576193688,-112.24659918595367Z"><title>Documents</title></path><path fill="#84cb80" display="" d="M144.49743103231793,-93.29786934898635A172,172,0,0,1,152.7953455010551,-78.97836661525237L102.8981158977639,-53.5535035706381A116,116,0,0,0,97.62797991796961,-62.64804495861402Z"><title>.m2</title></path><path fill="#84cb80" display="" d="M153.7033463708971,-77.19638148506728A172,172,0,0,1,160.3940106085172,-62.11087956964447L108.05470609829077,-42.192185177020676A116,116,0,0,0,103.80611676760591,-51.771518440453015Z"><title>.cargo</title></path><path fill="#84cb80" display="" d="M161.10536908478048,-60.241680355520145A172,172,0,0,1,161.57085912652914,58.981840265587515L109.07761367121459,39.47244856597142A116,116,0,0,0,108.76606457455405,-40.322985962896354Z"><title>Downloads</title></path><path fill="#84cb80" display="" d="M160.87411812138564,60.85653718924911A172,172,0,0,1,156.89472210296503,70.48436831123179L105.94572596898483,47.238788605390496A116,116,0,0,0,108.38087266607111,41.34714548963301Z"><title>.vpython-root</title></path><path fill="#84cb80" display="" d="M156.06455021350988,72.30391529270634A172,172,0,0,1,-171.96668724202158,3.3850375189554454L-115.97066871926681,2.608447202085567A116,116,0,0,0,105.11555407952969,49.058335586865034Z"><title>.local</title></path><path fill="#84cb80" display="" d="M-171.9944216955756,1.3852456838083889A172,172,0,0,1,-169.06694317295447,-31.62860613673938L-114.0813140636604,-21.01080154369365A116,116,0,0,0,-115.99840317282086,0.6086553669385912Z"><title>.config</title></path><path fill="#84cb80" display="" d="M-168.68774837495766,-33.592313826037085A172,172,0,0,1,-164.5209454124588,-50.16830195044236L-111.0505153452025,-33.522873408539226A116,116,0,0,0,-113.70211926566364,-22.97450923299128Z"><title>.vscode</title></path><path fill="#84cb80" display="" d="M-163.9264854317533,-52.07789717330358A172,172,0,0,1,-40.52833283389774,-167.15697484013285L-27.64937339423663,-112.65661166086117A116,116,0,0,0,-110.45605536449702,-35.43246863140037Z"><title>.cache</title></path><path fill="#84cb80" display="" d="M-38.58195549897763,-167.61692250448613A172,172,0,0,1,-24.064942957275775,-170.30818688619482L-16.552165780715228,-114.81300365362681A116,116,0,0,0,-25.702996059316597,-113.11655932521442Z"><title>.mozilla</title></path><path fill="#84cb80" display="" d="M-22.08303750674126,-170.57649150593952A172,172,0,0,1,-7.964835561607168,-171.81548648034192L-5.6968498260121105,-115.86002719687177A116,116,0,0,0,-14.57026033018079,-115.08130827337148Z"><title>.gradle</title></path><path fill="#84cb80" display="" d="M-5.966492222937198,-171.89648329897162A172,172,0,0,1,-0.9999920729478066,-171.99709304477807L-0.9999920729478056,-115.99568964342616A116,116,0,0,0,-3.6985064873422218,-115.94102401550147Z"><title>OTHERS</title></path><path fill="#84cb80" display="" d="M0.9999920729479221,-229.99782611114838A230,230,0,0,1,51.91980826540161,-224.06323551552123L39.041230511028516,-169.56350527216856A174,174,0,0,0,0.9999920729479173,-173.9971264586115Z"><title>_cacache</title></path><path fill="#84cb80" display="" d="M53.86618745563672,-223.6032957024431A230,230,0,0,1,55.1432144493848,-223.29179541619786L41.48062162691246,-168.98330695499163A174,174,0,0,0,40.987609701263615,-169.10356545909042Z"><title>OTHERS</title></path><path fill="#84cb80" display="" d="M57.082763715445765,-222.8038556367609A230,230,0,0,1,70.22580991602574,-219.0167473542565L52.89544740029143,-165.7651098522334A174,174,0,0,0,43.42017089297342,-168.49536717555466Z"><title>mesa</title></path><path fill="#84cb80" display="" d="M72.12761527574168,-218.3978184749898A230,230,0,0,1,89.97814830415659,-211.669395113595L67.846284110788,-160.22759354230544A174,174,0,0,0,54.797252760007375,-165.14618097296668Z"><title>ieps</title></path><path fill="#84cb80" display="" d="M91.8153179862721,-210.8789875333238A230,230,0,0,1,99.8543365117974,-207.1934156284623L75.3225661733358,-156.85187606485124A174,174,0,0,0,69.68345379290352,-159.43718596203422Z"><title>SS</title></path><path fill="#84cb80" display="" d="M101.65221192463873,-206.3172988647058A230,230,0,0,1,110.69530257194799,-201.60989556196117L83.52989538923856,-152.6393022005239A174,174,0,0,0,77.12044158617715,-155.9757593010947Z"><title>background-blobs</title></path><path fill="#84cb80" display="" d="M112.44421662026646,-200.63972226021093A230,230,0,0,1,120.27557882284611,-196.04536500215795L90.78346618947597,-148.43975972300774A174,174,0,0,0,85.27880943755703,-151.6691288987737Z"><title>CG</title></path><path fill="#84cb80" display="" d="M121.97574429229238,-194.99209677405213A230,230,0,0,1,149.10865865655578,-175.11883940239764L112.61844947922032,-132.638926552111A174,174,0,0,0,92.48363165892223,-147.38649149490192Z"><title>PF</title></path><path fill="#84cb80" display="" d="M150.62576742031672,-173.81564425862436A230,230,0,0,1,191.9455876642502,-126.71578976680699L145.07672554086787,-96.06635054138206A174,174,0,0,0,114.13555824298129,-131.33573140833772Z"><title>OTHERS</title></path><path fill="#84cb80" display="" d="M193.04018814088323,-125.04193601561201A230,230,0,0,1,204.22431214678687,-105.79428305996385L154.38798607823864,-80.2517897289873A174,174,0,0,0,146.17132601750083,-94.39249679018708Z"><title>repository</title></path><path fill="#84cb80" display="" d="M204.80627714901402,-104.66321627181759L154.9404009736019,-79.17999839694026Z"><title>OTHERS</title></path><path fill="#84cb80" display="" d="M205.38197796215496,-103.52894826256512A230,230,0,0,1,211.4580159174081,-90.47379457209246L159.87665323799885,-68.66917612303693A174,174,0,0,0,155.48537539879626,-78.10440472275171Z"><title>registry</title></path><path fill="#84cb80" display="" d="M212.23673638833068,-88.63164066646983A230,230,0,0,1,214.6019026504482,-82.74069965142638L162.26325586880165,-62.822255569629185A174,174,0,0,0,160.65537370892147,-66.82702221741431Z"><title>OTHERS</title></path><path fill="#84cb80" display="" d="M215.3132611267115,-80.87150043730206A230,230,0,0,1,218.01171768897004,-73.28636264889143L164.8528609639307,-55.6734607511239A174,174,0,0,0,162.97461434506494,-60.953056355504856Z"><title>SATLIB</title></path><path fill="#84cb80" display="" d="M218.64073705439432,-71.38787082068782A230,230,0,0,1,222.62353658063762,-57.7820124288649L168.35821179431113,-43.948976341001064A174,174,0,0,0,165.48188032935496,-53.77496892292029Z"><title>clonehero-linux</title></path><path fill="#84cb80" display="" d="M223.11756349524742,-55.844004691141514A230,230,0,0,1,224.7683089329494,-48.7771186051639L169.99030975012616,-37.13885554316606A174,174,0,0,0,168.85223870892094,-42.010968603277675Z"><title>tenacity-bin</title></path><path fill="#84cb80" display="" d="M225.18395269729842,-46.8208014414626A230,230,0,0,1,215.9381880239984,79.18774496670751L163.44560223178235,59.678598434363245A174,174,0,0,0,170.40595351447521,-35.182538379464745Z"><title>OTHERS</title></path><path fill="#84cb80" display="none" d="M215.24144701885493,81.0624418903691A230,230,0,0,1,209.66266978434723,94.5598482385614L158.71431390745846,71.31456065127749A174,174,0,0,0,162.74886122663887,61.55329535802485Z"><title/></path><path fill="#84cb80" display="" d="M208.8324978948921,96.37939522003595A230,230,0,0,1,198.6771023670059,115.87669737721325L150.42606761982788,87.45283403318028A174,174,0,0,0,157.88414201800333,73.13410763275202Z"><title>lib</title></path><path fill="#84cb80" display="" d="M197.661985120152,117.59991342837294A230,230,0,0,1,-229.95939491047034,4.3216538975664305L-173.96453611726926,3.51285830959901A174,174,0,0,0,149.41095037297396,89.17605008433996Z"><title>share</title></path><path fill="#84cb80" display="" d="M-229.9769570873537,3.25564261574815L-173.9825675356502,2.4629644136529483Z"><title>OTHERS</title></path><path fill="#84cb80" display="" d="M-229.9895776355323,2.1895613783255934A230,230,0,0,1,-229.82120006959795,-9.067303820310956L-173.87416244882044,-6.616315645523572A174,174,0,0,0,-173.99426279392284,1.41298082057753Z"><title>Code</title></path><path fill="#84cb80" display="" d="M-229.7336665651638,-11.065371504208597A230,230,0,0,1,-229.2259222939791,-18.854085723647685L-173.43418265737554,-14.020851827477953A174,174,0,0,0,-173.78662894438625,-8.61438332942121Z"><title>coc</title></path><path fill="#84cb80" display="" d="M-229.053310322598,-20.84660716422757A230,230,0,0,1,-226.01563736188643,-42.62548143892623L-171.03069923654957,-32.007810275883045A174,174,0,0,0,-173.26157068599446,-16.013373268057837Z"><title>OTHERS</title></path><path fill="#84cb80" display="" d="M-225.63644256388966,-44.5891891282239A230,230,0,0,1,-219.90044776665167,-67.40766330341158L-166.4306644637453,-50.76252482054282A174,174,0,0,0,-170.6515044385528,-33.971517965180716Z"><title>extensions</title></path><path fill="#84cb80" display="" d="M-219.60524315643048,-68.36327360655748L-166.1361404748648,-51.718302641482616Z"><title>OTHERS</title></path><path fill="#84cb80" display="" d="M-219.30588582013863,-69.31759116302527A230,230,0,0,1,-215.3966988859441,-80.64900562956704L-163.03750122765848,-60.784646033692226A174,174,0,0,0,-165.83612769589652,-52.67237179803376Z"><title>puppeteer</title></path><path fill="#84cb80" display="" d="M-214.68727195901954,-82.51893878858343A230,230,0,0,1,-205.14795752433778,-103.9919012403971L-155.3088241083012,-78.45488610721934A174,174,0,0,0,-162.32807430073396,-62.65457919270862Z"><title>mozilla</title></path><path fill="#84cb80" display="" d="M-204.23593989390193,-105.77183394294761A230,230,0,0,1,-199.9428400380055,-113.67876106615756L-151.38129799799995,-85.7887091431077A174,174,0,0,0,-154.39680647786534,-80.23481880976983Z"><title>supertuxkart</title></path><path fill="#84cb80" display="" d="M-198.9467870954458,-115.41306643703457A230,230,0,0,1,-191.08572699813575,-128.00876898710467L-144.69587582940423,-96.63903723631373A174,174,0,0,0,-150.38524505544027,-87.52301451398469Z"><title>spotify</title></path><path fill="#84cb80" display="" d="M-189.96540231376827,-129.66551555355096A230,230,0,0,1,-174.67849659465637,-149.62427218680338L-132.3063438030888,-113.00898809147382A174,174,0,0,0,-143.57555114503677,-98.29578380276Z"><title>paru</title></path><path fill="#84cb80" display="" d="M-173.37083458074412,-151.13753245562884A230,230,0,0,1,-166.2009314692107,-158.98820830101437L-125.90280048842698,-120.10197679127246A174,174,0,0,0,-130.99868178917654,-114.52224836029926Z"><title>electron</title></path><path fill="#84cb80" display="" d="M-164.81216584671557,-160.42739787491016A230,230,0,0,1,-159.340641403152,-165.86307605139888L-120.72012477387196,-125.31022095017146A174,174,0,0,0,-124.51403486593186,-121.54116636516824Z"><title>chromium</title></path><path fill="#84cb80" display="" d="M-157.8923547250124,-167.24235205052233A230,230,0,0,1,-141.676046560567,-181.1847063936911L-107.37270741526844,-136.92005588048508A174,174,0,0,0,-119.27183809573238,-126.6894969492949Z"><title>pip</title></path><path fill="#84cb80" display="" d="M-140.09519846760907,-182.40980063121944A230,230,0,0,1,-71.03188778785164,-218.75664770994743L-53.96869176558446,-165.41880276773657A174,174,0,0,0,-105.79185932231049,-138.14515011801342Z"><title>JetBrains</title></path><path fill="#84cb80" display="" d="M-69.12700365385803,-219.36603512357945A230,230,0,0,1,-53.86708942324338,-223.60307841590262L-40.988291828677156,-169.1034001224316A174,174,0,0,0,-52.06380763159079,-166.02819018136861Z"><title>OTHERS</title></path><path fill="#84cb80" display="" d="M-51.9207120883235,-224.06302608025587A230,230,0,0,1,-31.84639637002093,-227.78456277422208L-24.333601677288193,-172.29009208138197A174,174,0,0,0,-39.04191449375724,-169.56334778678485Z"><title>firefox</title></path><path fill="#84cb80" display="" d="M-30.855505708122262,-227.92090243656028L-23.34286084005771,-172.42711749548474Z"><title>OTHERS</title></path><path fill="#84cb80" display="" d="M-29.864031502229107,-228.0529316242917A230,230,0,0,1,-19.551044094710242,-229.16752971310464L-15.033373514450556,-173.34935154414342A174,174,0,0,0,-22.35134873594608,-172.55844577905808Z"><title>wrapper</title></path><path fill="#84cb80" display="" d="M-17.557578440113872,-229.32887179620286A230,230,0,0,1,-10.313791610187188,-229.76863515854734L-8.04583437552569,-173.81387904652956A174,174,0,0,0,-13.039907859854141,-173.51069362724166Z"><title>OTHERS</title></path><path fill="#84cb80" display="none" d="M-8.315448271517461,-229.849631977177A230,230,0,0,1,-0.9999920729476439,-229.99782611114838L-0.9999920729477069,-173.9971264586115A174,174,0,0,0,-6.047491036855916,-173.89487586515924Z"><title/></path><path fill="#84cb80" display="" d="M0.9999920729479248,-287.99826391118063A288,288,0,0,1,63.42383634916462,-280.9295587558461L50.90173505986521,-226.34710815006073A232,232,0,0,0,0.9999920729479359,-231.99784485174436Z"><title>content-v2</title></path><path fill="#84cb80" display="" d="M65.31572577280087,-280.49573252862916L52.615445761422926,-225.95489564806238Z"><title>OTHERS</title></path><path fill="#84cb80" display="none" d="M67.20464845041036,-280.04916573104936A288,288,0,0,1,69.29368703461574,-279.5395945785654L55.63116266895385,-225.23137823158743A232,232,0,0,0,54.326135224517905,-225.5497085601473Z"><title/></path><path fill="#84cb80" display="" d="M71.23323630067671,-279.05165479912847A288,288,0,0,1,81.36807557573833,-276.26660362248083L65.35995979498013,-222.60295518163855A232,232,0,0,0,57.57071193501484,-224.74343845215046Z"><title>.git</title></path><path fill="#84cb80" display="" d="M83.2846049141831,-275.69489401200093A288,288,0,0,1,88.17502518266612,-274.16995629360304L70.84474950120679,-220.91858561042633A232,232,0,0,0,67.27648913342492,-222.03124557115865Z"><title>OTHERS</title></path><path fill="#84cb80" display="" d="M90.07683054238206,-273.5510274143363A288,288,0,0,1,112.9001892644689,-264.948197321754L90.7684619014672,-213.5066423417358A232,232,0,0,0,72.74655486092276,-220.29965673115962Z"><title>ieps-integration</title></path><path fill="#84cb80" display="" d="M113.81952711561226,-264.5545600574264L91.68795239868766,-213.11339560181568Z"><title>OTHERS</title></path><path fill="#84cb80" display="none" d="M114.73749253964104,-264.157732814536A288,288,0,0,1,125.2621158515,-259.3326094659239L100.7304684301724,-208.9913221400306A232,232,0,0,0,92.60573923860835,-212.71618899385837Z"><title/></path><path fill="#84cb80" display="" d="M127.05999126434135,-258.4564927021674A288,288,0,0,1,138.71458778003344,-252.39307268032417L111.571863378205,-203.41022418333637A232,232,0,0,0,102.52834384301374,-208.1152053762741Z"><title>node_modules</title></path><path fill="#84cb80" display="" d="M139.64808989666903,-251.87776993655442L112.4942946389834,-202.9015368933355Z"><title>OTHERS</title></path><path fill="#84cb80" display="none" d="M140.57967777323998,-251.35901455323227A288,288,0,0,1,150.82083013214543,-245.35092663010371L121.32886526984561,-197.74555988019463A232,232,0,0,0,113.41440670357694,-202.38866656034781Z"><title/></path><path fill="#84cb80" display="" d="M152.5209956015917,-244.2976584019979A288,288,0,0,1,186.9017922011675,-219.11576865207945L150.41178727832627,-176.63605024948762A232,232,0,0,0,123.02903073929191,-196.6922916520888Z"><title>pf-2024a-ieps-integration</title></path><path fill="#84cb80" display="" d="M187.66153322885688,-218.46544107980702L151.17179065657916,-175.98604975873343Z"><title>OTHERS</title></path><path fill="#84cb80" display="none" d="M188.41901144819437,-217.81247926802814A288,288,0,0,1,240.48809765452285,-158.45969483281445L193.61947036890905,-127.81040917727769A232,232,0,0,0,151.92898510609132,-175.33277926455474Z"><title/></path><path fill="#84cb80" display="" d="M241.58269813115584,-156.78584108161945A288,288,0,0,1,248.27840296041538,-145.9514803742175L199.9034368547178,-117.73961072498862A232,232,0,0,0,194.714070845542,-126.13655542608271Z"><title>org</title></path><path fill="#84cb80" display="" d="M249.2859542068561,-144.2238296370515A288,288,0,0,1,255.84025173782047,-132.2488774649095L206.0041753756034,-106.70651211532328A232,232,0,0,0,200.9109881011585,-116.01195998782258Z"><title>OTHERS</title></path><path fill="#84cb80" display="none" d="M256.453077473548,-131.05654907079767L206.58720129813588,-105.57333119592035Z"><title/></path><path fill="#84cb80" display="" d="M257.0603464712155,-129.86138098795448A288,288,0,0,1,263.83085275377874,-115.4871470563453L212.45236290513793,-93.20940669279886A232,232,0,0,0,207.16399391620504,-104.43696483854058Z"><title>src</title></path><path fill="#84cb80" display="" d="M264.6264740773654,-113.6522292671A288,288,0,0,1,264.8813059171867,-113.05703770931619L213.30020168766433,-91.25252851292244A232,232,0,0,0,213.24798422872456,-91.37448890355357Z"><title>OTHERS</title></path><path fill="#84cb80" display="none" d="M265.6600263881093,-111.21488380369355A288,288,0,0,1,268.8095187343882,-103.37041471226962L216.47113419702202,-83.4520704324038A232,232,0,0,0,214.07892215858692,-89.4103746072998Z"><title/></path><path fill="#84cb80" display="none" d="M269.52087721065146,-101.5012154981453A288,288,0,0,1,273.0688327273854,-91.52820654259104L219.91024235631176,-73.91539289477011A232,232,0,0,0,217.1824926732853,-81.58287121827948Z"><title/></path><path fill="#84cb80" display="" d="M273.6978520928097,-89.62971471438743A288,288,0,0,1,278.5109157453286,-73.31895942181991L224.30643507189535,-59.25051211034036A232,232,0,0,0,220.539261721736,-72.0169010665665Z"><title>clonehero_Data</title></path><path fill="#84cb80" display="" d="M278.92022778696173,-71.74612554883626L224.68573905060805,-57.795490025451436Z"><title>OTHERS</title></path><path fill="#84cb80" display="none" d="M279.3206576440059,-70.17100692821805A288,288,0,0,1,281.50238465211993,-60.83097430725494L226.7246599360218,-49.19276955910564A232,232,0,0,0,225.05560475563485,-56.338040151175534Z"><title/></path><path fill="#84cb80" display="none" d="M281.918028416469,-58.87465714355363A288,288,0,0,1,270.3052401518259,99.39354680492953L217.81291737520604,79.88449802371962A232,232,0,0,0,227.14030370037082,-47.236452395404335Z"><title/></path><path fill="#84cb80" display="none" d="M269.60849914668245,101.26824372859113A288,288,0,0,1,262.43034883811293,118.63520560401258L211.4822482394124,95.39003448790419A232,232,0,0,0,217.11617637006256,81.75919494738122Z"><title/></path><path fill="#84cb80" display="" d="M261.60017694865786,120.45475258548711A288,288,0,0,1,250.6319102464043,141.87193368047934L201.99364219352492,114.11646907170862A232,232,0,0,0,210.65207634995724,97.20958146937872Z"><title>python3.10</title></path><path fill="#84cb80" display="" d="M249.6406589287919,143.60898791370477A288,288,0,0,1,248.65114120946734,145.31555310850086L200.40034822547318,116.89183218304473A232,232,0,0,0,201.0023908759125,115.853523304934Z"><title>OTHERS</title></path><path fill="#84cb80" display="" d="M247.63602396261345,147.03876915966055A288,288,0,0,1,182.94496567425549,222.4300778546946L147.5224562605603,179.05620597692524A232,232,0,0,0,199.38523097861926,118.61504823420441Z"><title>rustup</title></path><path fill="#84cb80" display="" d="M181.39592269281658,223.6951479814028A288,288,0,0,1,-36.78250461888787,285.6414664469455L-29.437488551371295,230.12482323249677A232,232,0,0,0,145.97341327912144,180.32127610363347Z"><title>Steam</title></path><path fill="#84cb80" display="" d="M-38.765211322286056,285.3791484869532A288,288,0,0,1,-57.939381263679174,282.1117298142387L-46.482905200735104,227.29570942738772A232,232,0,0,0,-31.42019525476951,229.8625052725045Z"><title>Trash</title></path><path fill="#84cb80" display="" d="M-59.89706610883089,281.702576260059A288,288,0,0,1,-88.4795889205299,274.0718196831882L-71.0901586834204,220.8397367739015A232,232,0,0,0,-48.44059004588685,226.88655587320798Z"><title>multimc</title></path><path fill="#84cb80" display="" d="M-90.3807054417936,273.45077817377614A288,288,0,0,1,-286.88855949028414,25.277548013794775L-231.08752551491588,20.556156046136156A232,232,0,0,0,-72.99127520468413,220.21869526448944Z"><title>JetBrains</title></path><path fill="#84cb80" display="" d="M-287.05717803351064,23.284684654024524A288,288,0,0,1,-287.95378327896503,5.1593308995308105L-231.95920504959872,4.350539364056684A232,232,0,0,0,-231.2561440581424,18.56329268636598Z"><title>OTHERS</title></path><path fill="#84cb80" display="none" d="M-287.97114626590377,4.076630753632466L-231.97675671420026,3.2839525515372645Z"><title/></path><path fill="#84cb80" display="none" d="M-287.98443833754266,2.9938729782850526A288,288,0,0,1,-287.7660596115979,-11.605814732896143L-231.8193023150458,-9.154838838854854A232,232,0,0,0,-231.989404062053,2.2172963116160274Z"><title/></path><path fill="#84cb80" display="" d="M-287.67852610716363,-13.603882416793782A288,288,0,0,1,-287.0099984433852,-23.85918677423902L-231.21852616797327,-19.02611775192884A232,232,0,0,0,-231.7317688106116,-11.152906522752419Z"><title>extensions</title></path><path fill="#84cb80" display="" d="M-286.92539324841033,-24.85595923003354L-231.13434456121942,-20.022856046415907Z"><title>OTHERS</title></path><path fill="#84cb80" display="none" d="M-286.8373263192951,-25.85243180047568A288,288,0,0,1,-282.9640416401311,-53.62230075893958L-227.9793790183927,-43.0046827960402A232,232,0,0,0,-231.04586622879202,-21.01922212136201Z"><title/></path><path fill="#84cb80" display="none" d="M-282.5848468421343,-55.58600844823725A288,288,0,0,1,-275.2795923109812,-84.64718576007107L-221.81007691994697,-68.0021306781428A232,232,0,0,0,-227.60018422039596,-44.9683904853378Z"><title/></path><path fill="#84cb80" display="none" d="M-274.9839566480521,-85.60270782038502L-221.5148539664864,-68.95773685531016Z"><title/></path><path fill="#84cb80" display="" d="M-274.68500428669483,-86.55719739004049A288,288,0,0,1,-269.6256507399582,-101.22256894119066L-217.26670541290636,-81.35833527685637A232,232,0,0,0,-221.21551407419872,-69.91206142639464Z"><title>chrome</title></path><path fill="#84cb80" display="" d="M-269.2725351908589,-102.15821940444955L-216.91398668152522,-82.29412118691769Z"><title>OTHERS</title></path><path fill="#84cb80" display="" d="M-268.9161727742153,-103.09263805174646A288,288,0,0,1,-256.7668704821677,-130.44069235784409L-206.92797391023979,-104.90383030854079A232,232,0,0,0,-216.55723746318083,-83.22837798681113Z"><title>firefox</title></path><path fill="#84cb80" display="" d="M-256.3123740787698,-131.33151523569953L-206.47385689678677,-105.79483171764684Z"><title>OTHERS</title></path><path fill="#84cb80" display="" d="M-255.85478708045466,-132.22075452823287A288,288,0,0,1,-250.238546013466,-142.56461724097764L-201.67723322971082,-114.6747295475722A232,232,0,0,0,-206.01590338481557,-106.68386734899673Z"><title>cached-textures</title></path><path fill="#84cb80" display="" d="M-249.74198928482596,-143.43269776469336L-201.18104692388758,-115.54300653266965Z"><title>OTHERS</title></path><path fill="#84cb80" display="" d="M-249.24242118646382,-144.29904878795764A288,288,0,0,1,-242.70924136197476,-155.03620273179644L-195.62038240960018,-124.72636443800398A232,232,0,0,0,-200.6811224654478,-116.40913660880724Z"><title>Data</title></path><path fill="#84cb80" display="" d="M-241.62676381858506,-156.71792177845424A288,288,0,0,1,-239.1321209531955,-160.49868762213063L-192.7425022221345,-129.12911305027407A232,232,0,0,0,-194.53790486621054,-126.40808348466173Z"><title>OTHERS</title></path><path fill="#84cb80" display="" d="M-238.01179626882805,-162.15543418857692A288,288,0,0,1,-218.59747990459257,-187.50771125306085L-176.21894910489198,-150.9002384900948A232,232,0,0,0,-191.62217753776707,-130.7858596167203Z"><title>clone</title></path><path fill="#84cb80" display="" d="M-217.92815338453119,-188.28520909091145L-175.55323467087234,-151.67419621212312Z"><title>OTHERS</title></path><path fill="#84cb80" display="none" d="M-217.25606150985888,-189.06031772221377A288,288,0,0,1,-207.9380750033204,-199.26303461483644L-167.6401459374697,-160.37699794566507A232,232,0,0,0,-174.88412102516972,-152.445217088808Z"><title/></path><path fill="#84cb80" display="" d="M-206.54930938082526,-200.7022241887322A288,288,0,0,1,-199.3403691902456,-207.86393917920583L-160.7200256225745,-167.31130674248826A232,232,0,0,0,-166.25138031497463,-161.81618751956083Z"><title>Default</title></path><path fill="#84cb80" display="" d="M-198.61737090273647,-208.5548848041801L-159.99732656053772,-168.00254609225618Z"><title>OTHERS</title></path><path fill="#84cb80" display="" d="M-197.8919777022263,-209.24331569037412A288,288,0,0,1,-186.78746898592559,-219.21323278906294L-150.6156331974721,-176.46226519152623A232,232,0,0,0,-159.27165458214483,-168.69066378038215Z"><title>http</title></path><path fill="#84cb80" display="" d="M-185.26067224310063,-220.50506415961163A288,288,0,0,1,-177.82662796195433,-226.54291069835023L-143.40212912497546,-182.37277582584485A232,232,0,0,0,-149.08883645464724,-177.75409656207492Z"><title>http-v2</title></path><path fill="#84cb80" display="" d="M-176.7271281166991,-227.40167586810747L-142.3635198717854,-183.1846833381977Z"><title>OTHERS</title></path><path fill="#84cb80" display="" d="M-175.62348116363012,-228.25510479279114A288,288,0,0,1,-143.99220113552155,-249.41981880385427L-116.16207363520961,-200.8242332209142A232,232,0,0,0,-141.3203138961894,-183.99067606887724Z"><title>JetBrainsClientDist</title></path><path fill="#84cb80" display="" d="M-142.25667125273176,-250.4137366122158A288,288,0,0,1,-131.4355399028069,-256.2590463777965L-106.05160650463306,-206.3420867341088A232,232,0,0,0,-114.42654375241986,-201.8181510292757Z"><title>IntelliJIdea2023.2</title></path><path fill="#84cb80" display="" d="M-129.65281881651043,-257.1656014573744A288,288,0,0,1,-109.31553670831646,-266.44720571657854L-88.23959987758293,-214.56414661691284A232,232,0,0,0,-104.26888541833664,-207.24864181368665Z"><title>Rider2023.3</title></path><path fill="#84cb80" display="" d="M-107.46259886637327,-267.19990614684906A288,288,0,0,1,-88.70439626899213,-273.99914248506985L-71.64128574235458,-220.66156479365023A232,232,0,0,0,-86.3866620356398,-215.31684704718333Z"><title>OTHERS</title></path><path fill="#84cb80" display="none" d="M-86.79951213499854,-274.6085298987019A288,288,0,0,1,-67.20577810851967,-280.04889463954044L-54.32704504353555,-225.54948941825972A232,232,0,0,0,-69.73640160836102,-221.27095220728225Z"><title/></path><path fill="#84cb80" display="" d="M-65.2594007735996,-280.5088423038937A288,288,0,0,1,-39.78323418215651,-285.2390125456328L-32.240174323846276,-229.74893070386204A232,232,0,0,0,-52.38066770861555,-226.00943708261298Z"><title>inq5p2zn.default-release</title></path><path fill="#84cb80" display="" d="M-38.71466949666048,-285.3860094078971L-31.186817094532053,-229.89428535636156Z"><title>OTHERS</title></path><path fill="#84cb80" display="none" d="M-38.63645932147483,-285.39660826838855L-31.123814453410283,-229.902823327313Z"><title/></path><path fill="#84cb80" display="" d="M-37.64498588674145,-285.5290791453421A288,288,0,0,1,-24.23018161444097,-286.9789161226504L-19.71250552541044,-231.1610199101714A232,232,0,0,0,-30.13234076296946,-230.03487135681036Z"><title>dists</title></path><path fill="#84cb80" display="" d="M-23.233516510382895,-287.06132395458945L-18.715888300030663,-231.24384429675263Z"><title>OTHERS</title></path><path fill="#84cb80" display="none" d="M-22.23657125836723,-287.1402704231358A288,288,0,0,1,-12.662735700855626,-287.7214888126542L-10.394789829858386,-231.7670130635356A232,232,0,0,0,-17.71892331402467,-231.32237193274608Z"><title/></path><path fill="#84cb80" display="none" d="M-10.664392362185698,-287.80248563128384A288,288,0,0,1,-0.9999920729477042,-287.99826391118063L-0.9999920729477069,-231.99784485174436A232,232,0,0,0,-8.396446491188529,-231.8480098821653Z"><title/></path></g><g id="labels" transform="translate(402.5,300)" text-anchor="middle"><text transform="rotate(90) translate(29,0) rotate(180)" style="opacity: 1;"><tspan x="0" y="4" style="font-family: Arial, sans-serif; font-size: 10px; fill: black; font-weight: normal; font-style: italic;"/></text><text transform="rotate(90) translate(87,0) rotate(180)" style="opacity: 1;"><tspan x="0" y="4" style="font-family: Arial, sans-serif; font-size: 10px; fill: black; font-weight: normal; font-style: italic;">.</tspan></text><text transform="rotate(-82.9394600723932) translate(145,0) rotate(0)" style="opacity: 1;"><tspan x="0" y="4" style="font-family: Arial, sans-serif; font-size: 10px; fill: black; font-weight: normal; font-style: italic;">.npm</tspan></text><text transform="rotate(-54.53060580854923) translate(145,0) rotate(0)" style="opacity: 1;"><tspan x="0" y="4" style="font-family: Arial, sans-serif; font-size: 10px; fill: black; font-weight: normal; font-style: italic;">Documents</tspan></text><text transform="rotate(-30.091580889832073) translate(145,0) rotate(0)" style="opacity: 1;"><tspan x="0" y="4" style="font-family: Arial, sans-serif; font-size: 10px; fill: black; font-weight: normal; font-style: italic;">.m2</tspan></text><text transform="rotate(-23.918061104483826) translate(145,0) rotate(0)" style="opacity: 0;"><tspan x="0" y="4" style="font-family: Arial, sans-serif; font-size: 10px; fill: black; font-weight: normal; font-style: italic;">.cargo</tspan></text><text transform="rotate(-0.22370149059693745) translate(145,0) rotate(0)" style="opacity: 1;"><tspan x="0" y="4" style="font-family: Arial, sans-serif; font-size: 10px; fill: black; font-weight: normal; font-style: italic;">Downloads</tspan></text><text transform="rotate(22.45639254593189) translate(145,0) rotate(0)" style="opacity: 1;"><tspan x="0" y="4" style="font-family: Arial, sans-serif; font-size: 10px; fill: black; font-weight: normal; font-style: italic;">.vpython-root</tspan></text><text transform="rotate(101.86518541880082) translate(145,0) rotate(180)" style="opacity: 1;"><tspan x="0" y="4" style="font-family: Arial, sans-serif; font-size: 10px; fill: black; font-weight: normal; font-style: italic;">.local</tspan></text><text transform="rotate(185.067406086855) translate(145,0) rotate(180)" style="opacity: 1;"><tspan x="0" y="4" style="font-family: Arial, sans-serif; font-size: 10px; fill: black; font-weight: normal; font-style: italic;">.config</tspan></text><text transform="rotate(194.11041227049105) translate(145,0) rotate(180)" style="opacity: 1;"><tspan x="0" y="4" style="font-family: Arial, sans-serif; font-size: 10px; fill: black; font-weight: normal; font-style: italic;">.vscode</tspan></text><text transform="rotate(226.99790428063625) translate(145,0) rotate(180)" style="opacity: 1;"><tspan x="0" y="4" style="font-family: Arial, sans-serif; font-size: 10px; fill: black; font-weight: normal; font-style: italic;">.cache</tspan></text><text transform="rotate(259.49734754875476) translate(145,0) rotate(180)" style="opacity: 1;"><tspan x="0" y="4" style="font-family: Arial, sans-serif; font-size: 10px; fill: black; font-weight: normal; font-style: italic;">.mozilla</tspan></text><text transform="rotate(264.9846462375157) translate(145,0) rotate(180)" style="opacity: 0;"><tspan x="0" y="4" style="font-family: Arial, sans-serif; font-size: 10px; fill: black; font-weight: normal; font-style: italic;">.gradle</tspan></text><text transform="rotate(268.8394794526815) translate(145,0) rotate(180)" style="opacity: 1;"><tspan x="0" y="4" style="font-family: Arial, sans-serif; font-size: 10px; fill: black; font-weight: normal; font-style: italic;">OTHERS</tspan></text><text transform="rotate(-83.35229632340284) translate(203,0) rotate(0)" style="opacity: 1;"><tspan x="0" y="4" style="font-family: Arial, sans-serif; font-size: 10px; fill: black; font-weight: normal; font-style: italic;">_cacache</tspan></text><text transform="rotate(-76.29175639579604) translate(203,0) rotate(0)" style="opacity: 1;"><tspan x="0" y="4" style="font-family: Arial, sans-serif; font-size: 10px; fill: black; font-weight: normal; font-style: italic;">OTHERS</tspan></text><text transform="rotate(-73.92590711184353) translate(203,0) rotate(0)" style="opacity: 0;"><tspan x="0" y="4" style="font-family: Arial, sans-serif; font-size: 10px; fill: black; font-weight: normal; font-style: italic;">mesa</tspan></text><text transform="rotate(-69.34700706959208) translate(203,0) rotate(0)" style="opacity: 1;"><tspan x="0" y="4" style="font-family: Arial, sans-serif; font-size: 10px; fill: black; font-weight: normal; font-style: italic;">ieps</tspan></text><text transform="rotate(-65.37041749474264) translate(203,0) rotate(0)" style="opacity: 0;"><tspan x="0" y="4" style="font-family: Arial, sans-serif; font-size: 10px; fill: black; font-weight: normal; font-style: italic;">SS</tspan></text><text transform="rotate(-62.50065664268406) translate(203,0) rotate(0)" style="opacity: 0;"><tspan x="0" y="4" style="font-family: Arial, sans-serif; font-size: 10px; fill: black; font-weight: normal; font-style: italic;">background-blobs</tspan></text><text transform="rotate(-59.60150034728032) translate(203,0) rotate(0)" style="opacity: 1;"><tspan x="0" y="4" style="font-family: Arial, sans-serif; font-size: 10px; fill: black; font-weight: normal; font-style: italic;">CG</tspan></text><text transform="rotate(-53.779425837896525) translate(203,0) rotate(0)" style="opacity: 0;"><tspan x="0" y="4" style="font-family: Arial, sans-serif; font-size: 10px; fill: black; font-weight: normal; font-style: italic;">PF</tspan></text><text transform="rotate(-41.25987040485543) translate(203,0) rotate(0)" style="opacity: 1;"><tspan x="0" y="4" style="font-family: Arial, sans-serif; font-size: 10px; fill: black; font-weight: normal; font-style: italic;">OTHERS</tspan></text><text transform="rotate(-30.15934208134665) translate(203,0) rotate(0)" style="opacity: 0;"><tspan x="0" y="4" style="font-family: Arial, sans-serif; font-size: 10px; fill: black; font-weight: normal; font-style: italic;">repository</tspan></text><text transform="rotate(-27.068631498866672) translate(203,0) rotate(0)" style="opacity: 1;"><tspan x="0" y="4" style="font-family: Arial, sans-serif; font-size: 10px; fill: black; font-weight: normal; font-style: italic;">OTHERS</tspan></text><text transform="rotate(-24.957879772395955) translate(203,0) rotate(0)" style="opacity: 0;"><tspan x="0" y="4" style="font-family: Arial, sans-serif; font-size: 10px; fill: black; font-weight: normal; font-style: italic;">registry</tspan></text><text transform="rotate(-21.87507056952768) translate(203,0) rotate(0)" style="opacity: 0;"><tspan x="0" y="4" style="font-family: Arial, sans-serif; font-size: 10px; fill: black; font-weight: normal; font-style: italic;">OTHERS</tspan></text><text transform="rotate(-19.583309358753198) translate(203,0) rotate(0)" style="opacity: 0;"><tspan x="0" y="4" style="font-family: Arial, sans-serif; font-size: 10px; fill: black; font-weight: normal; font-style: italic;">SATLIB</tspan></text><text transform="rotate(-16.316168336461047) translate(203,0) rotate(0)" style="opacity: 1;"><tspan x="0" y="4" style="font-family: Arial, sans-serif; font-size: 10px; fill: black; font-weight: normal; font-style: italic;">clonehero-linux</tspan></text><text transform="rotate(-13.147902896329896) translate(203,0) rotate(0)" style="opacity: 0;"><tspan x="0" y="4" style="font-family: Arial, sans-serif; font-size: 10px; fill: black; font-weight: normal; font-style: italic;">tenacity-bin</tspan></text><text transform="rotate(4.196506492396537) translate(203,0) rotate(0)" style="opacity: 1;"><tspan x="0" y="4" style="font-family: Arial, sans-serif; font-size: 10px; fill: black; font-weight: normal; font-style: italic;">OTHERS</tspan></text><text/><text transform="rotate(27.513275497417382) translate(203,0) rotate(0)" style="opacity: 1;"><tspan x="0" y="4" style="font-family: Arial, sans-serif; font-size: 10px; fill: black; font-weight: normal; font-style: italic;">lib</tspan></text><text transform="rotate(104.83704307359332) translate(203,0) rotate(180)" style="opacity: 1;"><tspan x="0" y="4" style="font-family: Arial, sans-serif; font-size: 10px; fill: black; font-weight: normal; font-style: italic;">share</tspan></text><text transform="rotate(179.18895299497677) translate(203,0) rotate(180)" style="opacity: 1;"><tspan x="0" y="4" style="font-family: Arial, sans-serif; font-size: 10px; fill: black; font-weight: normal; font-style: italic;">OTHERS</tspan></text><text transform="rotate(180.85695300942172) translate(203,0) rotate(180)" style="opacity: 0;"><tspan x="0" y="4" style="font-family: Arial, sans-serif; font-size: 10px; fill: black; font-weight: normal; font-style: italic;">Code</tspan></text><text transform="rotate(183.72981952257084) translate(203,0) rotate(180)" style="opacity: 1;"><tspan x="0" y="4" style="font-family: Arial, sans-serif; font-size: 10px; fill: black; font-weight: normal; font-style: italic;">coc</tspan></text><text transform="rotate(187.94027260000416) translate(203,0) rotate(180)" style="opacity: 0;"><tspan x="0" y="4" style="font-family: Arial, sans-serif; font-size: 10px; fill: black; font-weight: normal; font-style: italic;">OTHERS</tspan></text><text transform="rotate(194.11036893568513) translate(203,0) rotate(180)" style="opacity: 1;"><tspan x="0" y="4" style="font-family: Arial, sans-serif; font-size: 10px; fill: black; font-weight: normal; font-style: italic;">extensions</tspan></text><text transform="rotate(197.29140369862574) translate(203,0) rotate(180)" style="opacity: 0;"><tspan x="0" y="4" style="font-family: Arial, sans-serif; font-size: 10px; fill: black; font-weight: normal; font-style: italic;">OTHERS</tspan></text><text transform="rotate(199.03375179508419) translate(203,0) rotate(180)" style="opacity: 0;"><tspan x="0" y="4" style="font-family: Arial, sans-serif; font-size: 10px; fill: black; font-weight: normal; font-style: italic;">puppeteer</tspan></text><text transform="rotate(203.95307562766254) translate(203,0) rotate(180)" style="opacity: 1;"><tspan x="0" y="4" style="font-family: Arial, sans-serif; font-size: 10px; fill: black; font-weight: normal; font-style: italic;">mozilla</tspan></text><text transform="rotate(208.49993680340805) translate(203,0) rotate(180)" style="opacity: 0;"><tspan x="0" y="4" style="font-family: Arial, sans-serif; font-size: 10px; fill: black; font-weight: normal; font-style: italic;">supertuxkart</tspan></text><text transform="rotate(211.96855578333083) translate(203,0) rotate(180)" style="opacity: 0;"><tspan x="0" y="4" style="font-family: Arial, sans-serif; font-size: 10px; fill: black; font-weight: normal; font-style: italic;">spotify</tspan></text><text transform="rotate(217.4493975860106) translate(203,0) rotate(180)" style="opacity: 1;"><tspan x="0" y="4" style="font-family: Arial, sans-serif; font-size: 10px; fill: black; font-weight: normal; font-style: italic;">paru</tspan></text><text transform="rotate(222.4049782062039) translate(203,0) rotate(180)" style="opacity: 0;"><tspan x="0" y="4" style="font-family: Arial, sans-serif; font-size: 10px; fill: black; font-weight: normal; font-style: italic;">electron</tspan></text><text transform="rotate(225.1883005653989) translate(203,0) rotate(180)" style="opacity: 0;"><tspan x="0" y="4" style="font-family: Arial, sans-serif; font-size: 10px; fill: black; font-weight: normal; font-style: italic;">chromium</tspan></text><text transform="rotate(229.31192513671533) translate(203,0) rotate(180)" style="opacity: 1;"><tspan x="0" y="4" style="font-family: Arial, sans-serif; font-size: 10px; fill: black; font-weight: normal; font-style: italic;">pip</tspan></text><text transform="rotate(242.24293010697687) translate(203,0) rotate(180)" style="opacity: 1;"><tspan x="0" y="4" style="font-family: Arial, sans-serif; font-size: 10px; fill: black; font-weight: normal; font-style: italic;">JetBrains</tspan></text><text transform="rotate(254.48223935017057) translate(203,0) rotate(180)" style="opacity: 1;"><tspan x="0" y="4" style="font-family: Arial, sans-serif; font-size: 10px; fill: black; font-weight: normal; font-style: italic;">OTHERS</tspan></text><text transform="rotate(259.4972897690135) translate(203,0) rotate(180)" style="opacity: 0;"><tspan x="0" y="4" style="font-family: Arial, sans-serif; font-size: 10px; fill: black; font-weight: normal; font-style: italic;">firefox</tspan></text><text transform="rotate(262.29027578992736) translate(203,0) rotate(180)" style="opacity: 1;"><tspan x="0" y="4" style="font-family: Arial, sans-serif; font-size: 10px; fill: black; font-weight: normal; font-style: italic;">OTHERS</tspan></text><text transform="rotate(263.83157927681435) translate(203,0) rotate(180)" style="opacity: 0;"><tspan x="0" y="4" style="font-family: Arial, sans-serif; font-size: 10px; fill: black; font-weight: normal; font-style: italic;">wrapper</tspan></text><text transform="rotate(266.52589194466157) translate(203,0) rotate(180)" style="opacity: 0;"><tspan x="0" y="4" style="font-family: Arial, sans-serif; font-size: 10px; fill: black; font-weight: normal; font-style: italic;">OTHERS</tspan></text><text/><text transform="rotate(-83.53950268495235) translate(261,0) rotate(0)" style="opacity: 1;"><tspan x="0" y="4" style="font-family: Arial, sans-serif; font-size: 10px; fill: black; font-weight: normal; font-style: italic;">content-v2</tspan></text><text transform="rotate(-76.89179900835519) translate(261,0) rotate(0)" style="opacity: 1;"><tspan x="0" y="4" style="font-family: Arial, sans-serif; font-size: 10px; fill: black; font-weight: normal; font-style: italic;">OTHERS</tspan></text><text/><text transform="rotate(-74.63441674360601) translate(261,0) rotate(0)" style="opacity: 0;"><tspan x="0" y="4" style="font-family: Arial, sans-serif; font-size: 10px; fill: black; font-weight: normal; font-style: italic;">.git</tspan></text><text transform="rotate(-72.68140371066313) translate(261,0) rotate(0)" style="opacity: 0;"><tspan x="0" y="4" style="font-family: Arial, sans-serif; font-size: 10px; fill: black; font-weight: normal; font-style: italic;">OTHERS</tspan></text><text transform="rotate(-69.34702151452738) translate(261,0) rotate(0)" style="opacity: 1;"><tspan x="0" y="4" style="font-family: Arial, sans-serif; font-size: 10px; fill: black; font-weight: normal; font-style: italic;">ieps-integration</tspan></text><text transform="rotate(-66.72113450521883) translate(261,0) rotate(0)" style="opacity: 0;"><tspan x="0" y="4" style="font-family: Arial, sans-serif; font-size: 10px; fill: black; font-weight: normal; font-style: italic;">OTHERS</tspan></text><text/><text transform="rotate(-62.5138448686173) translate(261,0) rotate(0)" style="opacity: 0;"><tspan x="0" y="4" style="font-family: Arial, sans-serif; font-size: 10px; fill: black; font-weight: normal; font-style: italic;">node_modules</tspan></text><text transform="rotate(-60.9947865820996) translate(261,0) rotate(0)" style="opacity: 0;"><tspan x="0" y="4" style="font-family: Arial, sans-serif; font-size: 10px; fill: black; font-weight: normal; font-style: italic;">OTHERS</tspan></text><text/><text transform="rotate(-53.77944028283183) translate(261,0) rotate(0)" style="opacity: 1;"><tspan x="0" y="4" style="font-family: Arial, sans-serif; font-size: 10px; fill: black; font-weight: normal; font-style: italic;">pf-2024a-ieps-integration</tspan></text><text transform="rotate(-49.33746378233408) translate(261,0) rotate(0)" style="opacity: 0;"><tspan x="0" y="4" style="font-family: Arial, sans-serif; font-size: 10px; fill: black; font-weight: normal; font-style: italic;">OTHERS</tspan></text><text/><text transform="rotate(-31.716332767974606) translate(261,0) rotate(0)" style="opacity: 1;"><tspan x="0" y="4" style="font-family: Arial, sans-serif; font-size: 10px; fill: black; font-weight: normal; font-style: italic;">org</tspan></text><text transform="rotate(-28.693383377009205) translate(261,0) rotate(0)" style="opacity: 0;"><tspan x="0" y="4" style="font-family: Arial, sans-serif; font-size: 10px; fill: black; font-weight: normal; font-style: italic;">OTHERS</tspan></text><text/><text transform="rotate(-25.221225387936784) translate(261,0) rotate(0)" style="opacity: 1;"><tspan x="0" y="4" style="font-family: Arial, sans-serif; font-size: 10px; fill: black; font-weight: normal; font-style: italic;">src</tspan></text><text transform="rotate(-23.178234852980637) translate(261,0) rotate(0)" style="opacity: 0;"><tspan x="0" y="4" style="font-family: Arial, sans-serif; font-size: 10px; fill: black; font-weight: normal; font-style: italic;">OTHERS</tspan></text><text/><text/><text transform="rotate(-16.44055367437022) translate(261,0) rotate(0)" style="opacity: 0;"><tspan x="0" y="4" style="font-family: Arial, sans-serif; font-size: 10px; fill: black; font-weight: normal; font-style: italic;">clonehero_Data</tspan></text><text transform="rotate(-14.425355194940408) translate(261,0) rotate(0)" style="opacity: 0;"><tspan x="0" y="4" style="font-family: Arial, sans-serif; font-size: 10px; fill: black; font-weight: normal; font-style: italic;">OTHERS</tspan></text><text/><text/><text/><text transform="rotate(27.11810540228541) translate(261,0) rotate(0)" style="opacity: 1;"><tspan x="0" y="4" style="font-family: Arial, sans-serif; font-size: 10px; fill: black; font-weight: normal; font-style: italic;">python3.10</tspan></text><text transform="rotate(30.10644472826067) translate(261,0) rotate(0)" style="opacity: 0;"><tspan x="0" y="4" style="font-family: Arial, sans-serif; font-size: 10px; fill: black; font-weight: normal; font-style: italic;">OTHERS</tspan></text><text transform="rotate(40.6319201772875) translate(261,0) rotate(0)" style="opacity: 1;"><tspan x="0" y="4" style="font-family: Arial, sans-serif; font-size: 10px; fill: black; font-weight: normal; font-style: italic;">rustup</tspan></text><text transform="rotate(74.1494280407492) translate(261,0) rotate(0)" style="opacity: 1;"><tspan x="0" y="4" style="font-family: Arial, sans-serif; font-size: 10px; fill: black; font-weight: normal; font-style: italic;">Steam</tspan></text><text transform="rotate(99.67072529223913) translate(261,0) rotate(180)" style="opacity: 1;"><tspan x="0" y="4" style="font-family: Arial, sans-serif; font-size: 10px; fill: black; font-weight: normal; font-style: italic;">Trash</tspan></text><text transform="rotate(104.94779239257485) translate(261,0) rotate(180)" style="opacity: 1;"><tspan x="0" y="4" style="font-family: Arial, sans-serif; font-size: 10px; fill: black; font-weight: normal; font-style: italic;">multimc</tspan></text><text transform="rotate(141.62720992463358) translate(261,0) rotate(180)" style="opacity: 1;"><tspan x="0" y="4" style="font-family: Arial, sans-serif; font-size: 10px; fill: black; font-weight: normal; font-style: italic;">JetBrains</tspan></text><text transform="rotate(177.1680632110369) translate(261,0) rotate(180)" style="opacity: 1;"><tspan x="0" y="4" style="font-family: Arial, sans-serif; font-size: 10px; fill: black; font-weight: normal; font-style: italic;">OTHERS</tspan></text><text/><text/><text transform="rotate(183.72974729789428) translate(261,0) rotate(180)" style="opacity: 1;"><tspan x="0" y="4" style="font-family: Arial, sans-serif; font-size: 10px; fill: black; font-weight: normal; font-style: italic;">extensions</tspan></text><text transform="rotate(184.95109546778116) translate(261,0) rotate(180)" style="opacity: 0;"><tspan x="0" y="4" style="font-family: Arial, sans-serif; font-size: 10px; fill: black; font-weight: normal; font-style: italic;">OTHERS</tspan></text><text/><text/><text/><text transform="rotate(199.03373735014884) translate(261,0) rotate(180)" style="opacity: 1;"><tspan x="0" y="4" style="font-family: Arial, sans-serif; font-size: 10px; fill: black; font-weight: normal; font-style: italic;">chrome</tspan></text><text transform="rotate(200.77604211180147) translate(261,0) rotate(180)" style="opacity: 0;"><tspan x="0" y="4" style="font-family: Arial, sans-serif; font-size: 10px; fill: black; font-weight: normal; font-style: italic;">OTHERS</tspan></text><text transform="rotate(203.95306118272725) translate(261,0) rotate(180)" style="opacity: 0;"><tspan x="0" y="4" style="font-family: Arial, sans-serif; font-size: 10px; fill: black; font-weight: normal; font-style: italic;">firefox</tspan></text><text transform="rotate(207.13008025365303) translate(261,0) rotate(180)" style="opacity: 1;"><tspan x="0" y="4" style="font-family: Arial, sans-serif; font-size: 10px; fill: black; font-weight: normal; font-style: italic;">OTHERS</tspan></text><text transform="rotate(208.4999223584727) translate(261,0) rotate(180)" style="opacity: 0;"><tspan x="0" y="4" style="font-family: Arial, sans-serif; font-size: 10px; fill: black; font-weight: normal; font-style: italic;">cached-textures</tspan></text><text transform="rotate(209.86976446329243) translate(261,0) rotate(180)" style="opacity: 0;"><tspan x="0" y="4" style="font-family: Arial, sans-serif; font-size: 10px; fill: black; font-weight: normal; font-style: italic;">OTHERS</tspan></text><text transform="rotate(211.31903926735293) translate(261,0) rotate(180)" style="opacity: 0;"><tspan x="0" y="4" style="font-family: Arial, sans-serif; font-size: 10px; fill: black; font-weight: normal; font-style: italic;">Data</tspan></text><text transform="rotate(213.417816142456) translate(261,0) rotate(180)" style="opacity: 0;"><tspan x="0" y="4" style="font-family: Arial, sans-serif; font-size: 10px; fill: black; font-weight: normal; font-style: italic;">OTHERS</tspan></text><text transform="rotate(217.44424074410676) translate(261,0) rotate(180)" style="opacity: 1;"><tspan x="0" y="4" style="font-family: Arial, sans-serif; font-size: 10px; fill: black; font-weight: normal; font-style: italic;">clone</tspan></text><text transform="rotate(220.82630567168349) translate(261,0) rotate(180)" style="opacity: 0;"><tspan x="0" y="4" style="font-family: Arial, sans-serif; font-size: 10px; fill: black; font-weight: normal; font-style: italic;">OTHERS</tspan></text><text/><text transform="rotate(225.1882861204636) translate(261,0) rotate(180)" style="opacity: 0;"><tspan x="0" y="4" style="font-family: Arial, sans-serif; font-size: 10px; fill: black; font-weight: normal; font-style: italic;">Default</tspan></text><text transform="rotate(226.398092787042) translate(261,0) rotate(180)" style="opacity: 0;"><tspan x="0" y="4" style="font-family: Arial, sans-serif; font-size: 10px; fill: black; font-weight: normal; font-style: italic;">OTHERS</tspan></text><text transform="rotate(228.08167888668078) translate(261,0) rotate(180)" style="opacity: 1;"><tspan x="0" y="4" style="font-family: Arial, sans-serif; font-size: 10px; fill: black; font-weight: normal; font-style: italic;">http</tspan></text><text transform="rotate(230.9168874534904) translate(261,0) rotate(180)" style="opacity: 0;"><tspan x="0" y="4" style="font-family: Arial, sans-serif; font-size: 10px; fill: black; font-weight: normal; font-style: italic;">http-v2</tspan></text><text transform="rotate(232.14713370352496) translate(261,0) rotate(180)" style="opacity: 0;"><tspan x="0" y="4" style="font-family: Arial, sans-serif; font-size: 10px; fill: black; font-weight: normal; font-style: italic;">OTHERS</tspan></text><text transform="rotate(236.21323854245793) translate(261,0) rotate(180)" style="opacity: 0;"><tspan x="0" y="4" style="font-family: Arial, sans-serif; font-size: 10px; fill: black; font-weight: normal; font-style: italic;">JetBrainsClientDist</tspan></text><text transform="rotate(241.6231701577267) translate(261,0) rotate(180)" style="opacity: 0;"><tspan x="0" y="4" style="font-family: Arial, sans-serif; font-size: 10px; fill: black; font-weight: normal; font-style: italic;">IntelliJIdea2023.2</tspan></text><text transform="rotate(245.46881639403864) translate(261,0) rotate(180)" style="opacity: 1;"><tspan x="0" y="4" style="font-family: Arial, sans-serif; font-size: 10px; fill: black; font-weight: normal; font-style: italic;">Rider2023.3</tspan></text><text transform="rotate(250.07607184429338) translate(261,0) rotate(180)" style="opacity: 0;"><tspan x="0" y="4" style="font-family: Arial, sans-serif; font-size: 10px; fill: black; font-weight: normal; font-style: italic;">OTHERS</tspan></text><text/><text transform="rotate(259.48164590407845) translate(261,0) rotate(180)" style="opacity: 0;"><tspan x="0" y="4" style="font-family: Arial, sans-serif; font-size: 10px; fill: black; font-weight: normal; font-style: italic;">inq5p2zn.default-release</tspan></text><text transform="rotate(262.2745741452511) translate(261,0) rotate(180)" style="opacity: 1;"><tspan x="0" y="4" style="font-family: Arial, sans-serif; font-size: 10px; fill: black; font-weight: normal; font-style: italic;">OTHERS</tspan></text><text/><text transform="rotate(263.83156483187906) translate(261,0) rotate(180)" style="opacity: 0;"><tspan x="0" y="4" style="font-family: Arial, sans-serif; font-size: 10px; fill: black; font-weight: normal; font-style: italic;">dists</tspan></text><text transform="rotate(265.3728105390248) translate(261,0) rotate(180)" style="opacity: 0;"><tspan x="0" y="4" style="font-family: Arial, sans-serif; font-size: 10px; fill: black; font-weight: normal; font-style: italic;">OTHERS</tspan></text><text/><text/></g></svg>