<svg width="500" height="500" viewBox="0 0 500 500" fill="none" xmlns="http://www.w3.org/2000/svg">
<circle cx="250" cy="250" r="250" fill="#ECECEC"/>
<path d="M281.685 108.696H281.685C271.564 108.696 263.359 117.114 263.359 127.499V329.023C263.359 339.408 271.564 347.826 281.685 347.826C291.806 347.826 300.01 339.408 300.01 329.023V127.499C300.01 117.114 291.806 108.696 281.685 108.696Z" fill="#BC5151"/>
<path d="M153.531 177.28C142.617 177.28 131.81 179.486 121.726 183.771C111.643 188.057 102.482 194.338 94.7642 202.256C87.0469 210.175 80.9252 219.575 76.7486 229.921C72.572 240.266 70.4224 251.355 70.4224 262.553C70.4224 273.751 72.572 284.84 76.7486 295.185C80.9252 305.531 87.0469 314.932 94.7642 322.85C102.482 330.768 111.643 337.049 121.726 341.335C131.81 345.62 142.617 347.826 153.531 347.826H236.641V262.551C236.64 239.936 227.883 218.247 212.297 202.255C196.711 186.264 175.572 177.28 153.531 177.28ZM199.987 310.222H153.531C147.428 310.225 141.385 308.995 135.747 306.6C130.109 304.206 124.986 300.695 120.671 296.267C116.357 291.84 112.935 286.583 110.602 280.798C108.269 275.013 107.07 268.812 107.074 262.551C107.073 260.814 107.164 259.079 107.346 257.352C108.298 248.326 111.757 239.77 117.311 232.702C118.363 231.354 119.488 230.066 120.68 228.846C127.178 222.179 135.455 217.639 144.467 215.8C153.479 213.961 162.82 214.905 171.309 218.513C179.798 222.12 187.053 228.23 192.158 236.069C197.263 243.908 199.987 253.124 199.987 262.551V310.222Z" fill="#E46161"/>
<path d="M346.468 177.279C335.554 177.279 324.747 179.485 314.664 183.77C304.58 188.055 295.419 194.336 287.701 202.255C279.984 210.173 273.862 219.574 269.685 229.92C265.509 240.265 263.359 251.354 263.359 262.552V347.826H346.468C357.382 347.826 368.189 345.62 378.273 341.335C388.356 337.049 397.518 330.768 405.235 322.85C412.953 314.932 419.074 305.531 423.251 295.185C427.428 284.839 429.577 273.751 429.577 262.552C429.577 251.354 427.428 240.266 423.251 229.92C419.074 219.574 412.953 210.173 405.235 202.255C397.518 194.337 388.356 188.055 378.273 183.77C368.189 179.485 357.382 177.279 346.468 177.279ZM392.926 262.552C392.926 275.195 388.031 287.319 379.319 296.258C370.606 305.198 358.79 310.22 346.468 310.22H300.01V262.552C300.01 256.293 301.212 250.094 303.547 244.311C305.882 238.527 309.304 233.273 313.618 228.846C317.932 224.42 323.053 220.909 328.69 218.513C334.326 216.118 340.367 214.885 346.468 214.885C358.789 214.885 370.606 219.907 379.319 228.846C388.031 237.786 392.926 249.91 392.926 262.552L392.926 262.552Z" fill="#E46161"/>
</svg>
