<?xml version="1.0" encoding="UTF-8" standalone="no"?>
<!-- Created with Inkscape (http://www.inkscape.org/) -->

<svg
   version="1.1"
   id="svg1"
   width="1024"
   height="1024"
   viewBox="0 0 1024 1024"
   sodipodi:docname="ab.svg"
   inkscape:version="1.3.2 (091e20ef0f, 2023-11-25, custom)"
   xmlns:inkscape="http://www.inkscape.org/namespaces/inkscape"
   xmlns:sodipodi="http://sodipodi.sourceforge.net/DTD/sodipodi-0.dtd"
   xmlns="http://www.w3.org/2000/svg"
   xmlns:svg="http://www.w3.org/2000/svg">
  <defs
     id="defs1" />
  <sodipodi:namedview
     id="namedview1"
     pagecolor="#ffffff"
     bordercolor="#000000"
     borderopacity="0.25"
     inkscape:showpageshadow="2"
     inkscape:pageopacity="0.0"
     inkscape:pagecheckerboard="0"
     inkscape:deskcolor="#d1d1d1"
     inkscape:zoom="0.49198296"
     inkscape:cx="446.15366"
     inkscape:cy="511.19656"
     inkscape:window-width="1092"
     inkscape:window-height="1019"
     inkscape:window-x="0"
     inkscape:window-y="0"
     inkscape:window-maximized="1"
     inkscape:current-layer="g1" />
  <g
     inkscape:groupmode="layer"
     inkscape:label="Image"
     id="g1">
    <path
       style="fill:#000000"
       d="m 179.62978,605.55773 c -2.2591,-3.44783 -2.11849,-4.69713 1.80732,-16.05773 1.9006,-5.5 5.5349,-16.975 8.07622,-25.5 6.04872,-20.29078 10.68132,-35.52721 15.65846,-51.5 3.69408,-11.85521 7.45773,-23.70877 24.36904,-76.75 L 235.20011,418 h 21.20281 21.20282 l 5.64127,17.75 c 3.1027,9.7625 7.51684,24.05 9.80921,31.75 2.29236,7.7 6.3353,20.75 8.98432,29 2.64901,8.25 6.43703,20.625 8.41782,27.5 1.9808,6.875 5.12613,17.45 6.98963,23.5 1.8635,6.05 4.94411,16.175 6.84581,22.5 1.9017,6.325 4.9313,16.31311 6.73245,22.19579 3.07327,10.03756 3.17676,10.84543 1.6817,13.12718 l -1.5931,2.43138 -18.78768,-0.18934 -18.78768,-0.18934 -1.68465,-2.93783 C 290.3996,601.90006 282.802,578.22246 279.7247,566.63476 l -1.02648,-3.86524 -4.48868,0.61524 C 271.74076,563.72314 261.07991,564 250.51876,564 h -19.20211 l -1.81051,6.25 c -0.99579,3.4375 -2.85066,8.10219 -4.12194,10.36597 -1.27128,2.26378 -3.03287,7.66378 -3.91464,12 -0.88178,4.33622 -2.36066,9.45903 -3.2864,11.38403 l -1.68316,3.5 -17.62022,0.27255 -17.62021,0.27254 z m 89.52328,-79.09776 c 0.084,-0.30915 -1.23709,-4.92662 -2.93574,-10.26103 C 264.51868,510.86452 261.44583,500.9875 259.38878,494.25 256.03449,483.26362 254,479.21759 254,483.53324 c 0,0.84329 -1.11073,3.72518 -2.4683,6.4042 -1.35756,2.67902 -3.38948,8.62656 -4.51538,13.21676 -1.12589,4.59019 -2.67778,10.3708 -3.44864,12.8458 -1.95216,6.26781 -2.70452,9.96941 -2.19432,10.79599 0.50825,0.8234 27.55358,0.49627 27.7797,-0.33602 z m 100.44049,79.37013 c -0.90807,-1.29646 -1.11186,-23.82058 -0.85513,-94.51609 l 0.33705,-92.81401 20.20996,-0.27149 c 25.91975,-0.3482 22.71464,-11.10225 22.7142,76.21262 l -3.7e-4,73.05887 38.6507,-0.27335 38.6507,-0.27336 -0.57765,18.61431 c -0.48063,15.48771 -0.86013,18.92644 -2.25938,20.47259 -2.49104,2.75257 -114.93653,2.55043 -116.87008,-0.21009 z m 151.9002,0.16299 c -1.91337,-2.11425 -1.90095,-6.58751 0.0335,-12.07035 0.83999,-2.38079 3.34073,-11.09986 5.5572,-19.37572 2.21648,-8.27586 5.86552,-21.12202 8.10899,-28.54702 2.24347,-7.425 7.78453,-26.325 12.31346,-42 4.52894,-15.675 11.4832,-39.075 15.45393,-52 3.97073,-12.925 7.96643,-25.975 8.87934,-29 0.9129,-3.025 2.22232,-5.455 2.90982,-5.4 0.6875,0.055 10.65114,0.1675 22.14142,0.25 l 20.89142,0.15 1.49306,3.75 c 0.82118,2.0625 2.47051,7.35 3.66518,11.75 2.12108,7.81197 8.34942,27.67694 20.06619,64 5.7468,17.81562 9.93064,31.32533 17.80727,57.5 2.23438,7.425 6.36187,21.11073 9.17221,30.41273 6.98405,23.11667 8.41772,20.9764 -14.48675,21.6268 -23.62961,0.67099 -22.3984,2.12902 -33.38873,-39.53953 l -1.05502,-4 -23.50994,-0.095 c -23.03258,-0.0931 -23.52312,-0.0524 -24.15932,2 -0.35716,1.15224 -1.45614,3.24142 -2.44218,4.64262 -0.98604,1.40119 -2.98273,6.80119 -4.43709,12 -3.71804,13.29061 -7.65429,24.08537 -8.92677,24.48076 -4.57297,1.42093 -34.72156,0.97372 -36.0872,-0.5353 z M 610,526.03751 c 0,-0.52937 -0.85326,-3.34187 -1.89614,-6.25 -1.85793,-5.18096 -7.80087,-24.12901 -10.20519,-32.53751 -1.38339,-4.83806 -3.56659,-5.5702 -4.47292,-1.5 -0.33679,1.5125 -2.16822,7.475 -4.06984,13.25 -3.56462,10.82536 -7.33437,24.5487 -7.34811,26.75 -0.006,0.94085 3.45471,1.25 13.9922,1.25 8.3029,0 14,-0.39167 14,-0.96249 z m 101.44113,79.54327 c -1.89409,-1.38483 -1.94756,-3.67472 -2.20635,-94.5 L 708.96956,418 h 18.90021 c 18.68924,0 18.91725,0.026 20.42695,2.3301 1.84969,2.82298 23.39716,40.16527 29.28778,50.75643 2.32073,4.1726 8.00227,13.3976 12.62566,20.5 4.62338,7.10241 10.37675,16.39171 12.78525,20.64289 2.4085,4.25117 4.53529,7.57321 4.72621,7.3823 0.19091,-0.19092 0.36019,-22.58877 0.37616,-49.77301 0.0346,-58.92321 -2.75236,-51.9839 20.91321,-52.07165 25.36486,-0.0941 22.24575,-13.8542 21.63948,95.46376 C 850.05652,620.32792 852.56172,607 833.02501,607 h -15.85695 l -2.87219,-3.75 c -6.54413,-8.54419 -51.6246,-83.21307 -59.17903,-98.02098 C 751.1364,497.42671 751,498.95759 751,551.4349 c 0,30.34981 -0.38838,51.45642 -0.97525,53 L 749.0495,607 h -17.83362 c -13.82248,0 -18.27022,-0.31921 -19.77475,-1.41922 z"
       id="path1" />
  </g>
</svg>
